<?xml version="1.0" encoding="iso-8859-1"?>
<!-- Generator: Adobe Illustrator 19.0.0, SVG Export Plug-In . SVG Version: 6.00 Build 0)  -->
<svg version="1.1" id="Capa_1" xmlns="http://www.w3.org/2000/svg" xmlns:xlink="http://www.w3.org/1999/xlink" x="0px" y="0px"
	 viewBox="0 0 512 512" style="enable-background:new 0 0 512 512;" xml:space="preserve">
<rect x="144" y="10" style="fill:#C9F3FF;" width="224" height="120"/>
<g>
	<polygon style="fill:#A0E557;" points="172.94,130.013 239.47,63.482 306,130.013 	"/>
	<polygon style="fill:#A0E557;" points="306,130.013 284.987,109 315.987,78 368,130.013 	"/>
</g>
<path style="fill:#FE8F8D;" d="M475,356v-78.5c0-39.488-32.012-71.5-71.5-71.5h-295C69.012,206,37,238.012,37,277.5V356H475z"/>
<path style="fill:#ADE5FF;" d="M423.421,342H88.579C45.181,342,10,377.181,10,420.579V502h492v-81.421
	C502,377.181,466.819,342,423.421,342z"/>
<g>
	<path style="fill:#FFC66C;" d="M224.462,267H111.795c-15.832,0-28.667,12.835-28.667,28.667V342h170v-46.333
		C253.128,279.835,240.294,267,224.462,267z"/>
	<path style="fill:#FFC66C;" d="M394.462,267H281.795c-15.832,0-28.667,12.835-28.667,28.667V342h170v-46.333
		C423.128,279.835,410.294,267,394.462,267z"/>
</g>
<path d="M484.953,356.925C484.981,356.62,485,356.312,485,356v-78.5c0-44.939-36.561-81.5-81.5-81.5H292.738
	c-5.523,0-10,4.477-10,10s4.477,10,10,10H403.5c33.911,0,61.5,27.589,61.5,61.5v64.885c-9.696-5.177-20.461-8.602-31.872-9.851
	v-36.867c0-21.321-17.346-38.667-38.667-38.667H281.795c-11.358,0-21.586,4.924-28.667,12.747
	c-7.08-7.823-17.309-12.747-28.667-12.747H111.795c-21.321,0-38.667,17.346-38.667,38.667v37.684
	c-9.286,1.64-18.075,4.734-26.128,9.034V277.5c0-33.911,27.589-61.5,61.5-61.5H205c5.523,0,10-4.477,10-10s-4.477-10-10-10h-96.5
	C63.561,196,27,232.561,27,277.5V356c0,0.312,0.019,0.62,0.047,0.925C10.381,373.041,0,395.619,0,420.578V502
	c0,5.522,4.477,10,10,10h492c5.523,0,10-4.478,10-10v-81.422C512,395.619,501.619,373.041,484.953,356.925z M281.795,277h112.667
	c10.293,0,18.667,8.374,18.667,18.667V332h-150v-36.333C263.128,285.374,271.502,277,281.795,277z M93.128,295.667
	c0-10.293,8.374-18.667,18.667-18.667h112.667c10.293,0,18.667,8.374,18.667,18.667V332h-150L93.128,295.667L93.128,295.667z
	 M492,492H20v-71.422C20,382.764,50.764,352,88.579,352h164.55h170h0.293C461.236,352,492,382.764,492,420.578V492z"/>
<path d="M245.91,198.93c-1.86,1.86-2.93,4.44-2.93,7.07s1.07,5.21,2.93,7.07c1.86,1.86,4.44,2.93,7.07,2.93s5.21-1.07,7.07-2.93
	s2.93-4.44,2.93-7.07s-1.07-5.21-2.93-7.07s-4.44-2.93-7.07-2.93S247.77,197.07,245.91,198.93z"/>
<path d="M369.333,402H64c-5.523,0-10,4.478-10,10s4.477,10,10,10h305.333c5.523,0,10-4.478,10-10S374.856,402,369.333,402z"/>
<path d="M409.833,402h-0.25c-5.523,0-10,4.478-10,10s4.477,10,10,10h0.25c5.523,0,10-4.478,10-10S415.356,402,409.833,402z"/>
<path d="M144,140h224c5.523,0,10-4.477,10-10V10c0-5.523-4.477-10-10-10H144c-5.523,0-10,4.477-10,10v120
	C134,135.523,138.477,140,144,140z M310.13,120l-11-11l16.857-16.858L343.845,120H310.13z M277.914,116.07
	c0.001,0,0.001,0.001,0.002,0.002s0.001,0.001,0.002,0.002l3.927,3.927h-84.75l42.375-42.375L277.914,116.07z M154,20h204v85.87
	l-34.941-34.941c-3.905-3.905-10.237-3.905-14.143,0l-23.929,23.929l-38.446-38.446c-3.905-3.905-10.237-3.905-14.143,0L168.81,120
	H154V20z"/>
<path d="M177.25,60.5h10.5c5.523,0,10-4.477,10-10s-4.477-10-10-10h-10.5c-5.523,0-10,4.477-10,10S171.727,60.5,177.25,60.5z"/>
<path d="M274.225,48.5h10.5c5.523,0,10-4.477,10-10s-4.477-10-10-10h-10.5c-5.523,0-10,4.477-10,10S268.702,48.5,274.225,48.5z"/>
<g>
</g>
<g>
</g>
<g>
</g>
<g>
</g>
<g>
</g>
<g>
</g>
<g>
</g>
<g>
</g>
<g>
</g>
<g>
</g>
<g>
</g>
<g>
</g>
<g>
</g>
<g>
</g>
<g>
</g>
</svg>
