<?xml version="1.0" encoding="iso-8859-1"?>
<!-- Generator: Adobe Illustrator 19.0.0, SVG Export Plug-In . SVG Version: 6.00 Build 0)  -->
<svg version="1.1" id="Capa_1" xmlns="http://www.w3.org/2000/svg" xmlns:xlink="http://www.w3.org/1999/xlink" x="0px" y="0px"
	 viewBox="0 0 472 472" style="enable-background:new 0 0 472 472;" xml:space="preserve">
<path style="fill:#4799CF;" d="M364,40h96v32h-96V40z"/>
<g>
	<path style="fill:#277BAA;" d="M412,40h48v32h-48V40z"/>
	<path style="fill:#277BAA;" d="M284,40h96l0,0v48c0,17.673-14.327,32-32,32h-32c-17.673,0-32-14.327-32-32V40L284,40z"/>
	<path style="fill:#277BAA;" d="M316,112h32v16h-32V112z"/>
</g>
<g>
	<path style="fill:#C7463B;" d="M124,8h32v32h-32V8z"/>
	<path style="fill:#C7463B;" d="M68,32h32v16H68V32z"/>
	<path style="fill:#C7463B;" d="M180,32h32v16h-32V32z"/>
</g>
<path style="fill:#EA9D2D;" d="M12,152h448v320H12V152z"/>
<path style="fill:#EAEAE8;" d="M60,152h352v112H60V152z"/>
<path style="fill:#C7463B;" d="M196,128H84V32h112V128z"/>
<path style="fill:#EA6B65;" d="M196,88H84V32h112V88z"/>
<g>
	<path style="fill:#744630;" d="M76,120h128c8.837,0,16,7.163,16,16v16l0,0H60l0,0v-16C60,127.163,67.163,120,76,120z"/>
	<path style="fill:#744630;" d="M268,120h128c8.837,0,16,7.163,16,16v16l0,0H252l0,0v-16C252,127.163,259.163,120,268,120z"/>
</g>
<g>
	<circle style="fill:#B9B9B9;" cx="116" cy="208" r="24"/>
	<circle style="fill:#B9B9B9;" cx="196" cy="208" r="24"/>
	<circle style="fill:#B9B9B9;" cx="276" cy="208" r="24"/>
	<circle style="fill:#B9B9B9;" cx="356" cy="208" r="24"/>
</g>
<path style="fill:#EAEAE8;" d="M68,296h344v176H68V296z"/>
<path style="fill:#744630;" d="M124,320h224v16H124V320z"/>
<g>
	<path style="fill:#B9B9B9;" d="M164,384h16v16h-16V384z"/>
	<path style="fill:#B9B9B9;" d="M164,432h16v16h-16V432z"/>
	<path style="fill:#B9B9B9;" d="M228,384h16v16h-16V384z"/>
	<path style="fill:#B9B9B9;" d="M228,432h16v16h-16V432z"/>
	<path style="fill:#B9B9B9;" d="M292,384h16v16h-16V384z"/>
	<path style="fill:#B9B9B9;" d="M292,432h16v16h-16V432z"/>
	<path style="fill:#B9B9B9;" d="M196,408h16v16h-16V408z"/>
	<path style="fill:#B9B9B9;" d="M260,408h16v16h-16V408z"/>
</g>
<g>
	<path style="fill:#EA9D2D;" d="M292,0h16v16h-16V0z"/>
	<path style="fill:#EA9D2D;" d="M324,0h16v16h-16V0z"/>
	<path style="fill:#EA9D2D;" d="M356,0h16v16h-16V0z"/>
</g>
<g>
	<path style="fill:#62666A;" d="M92,208c0,13.255,10.745,24,24,24v-48C102.745,184,92,194.745,92,208z"/>
	<path style="fill:#62666A;" d="M172,208c0,13.255,10.745,24,24,24v-48C182.745,184,172,194.745,172,208z"/>
	<path style="fill:#62666A;" d="M252,208c0,13.255,10.745,24,24,24v-48C262.745,184,252,194.745,252,208z"/>
	<path style="fill:#62666A;" d="M332,208c0,13.255,10.745,24,24,24v-48C342.745,184,332,194.745,332,208z"/>
</g>
<g>
</g>
<g>
</g>
<g>
</g>
<g>
</g>
<g>
</g>
<g>
</g>
<g>
</g>
<g>
</g>
<g>
</g>
<g>
</g>
<g>
</g>
<g>
</g>
<g>
</g>
<g>
</g>
<g>
</g>
</svg>
