<?xml version="1.0" encoding="iso-8859-1"?>
<!-- Generator: Adobe Illustrator 19.0.0, SVG Export Plug-In . SVG Version: 6.00 Build 0)  -->
<svg version="1.1" id="Capa_1" xmlns="http://www.w3.org/2000/svg" xmlns:xlink="http://www.w3.org/1999/xlink" x="0px" y="0px"
	 viewBox="0 0 512 512" style="enable-background:new 0 0 512 512;" xml:space="preserve">
<rect x="96" y="37" style="fill:#FFB954;" width="320" height="160"/>
<rect x="136" y="77" style="fill:#C9F3FF;" width="240" height="80"/>
<rect x="10" y="341" style="fill:#D8D8E4;" width="88.998" height="134"/>
<rect x="397.33" y="434.94" style="fill:#C9F3FF;" width="104.67" height="40.06"/>
<path style="fill:#72D8FF;" d="M385.967,411.542V300.653c0-16.929-13.724-30.653-30.653-30.653H248.269h-30.388h-60.23
	c-16.929,0-30.653,13.724-30.653,30.653v110.889L385.967,411.542L385.967,411.542z"/>
<rect x="152.72" y="377" style="fill:#C9F3FF;" width="204.28" height="44"/>
<path style="fill:#ADE5FF;" d="M357.002,389v32H154.998v-32c0-15.464-12.536-28-28-28l0,0c-15.464,0-28,12.536-28,28v64
	c0,12.15,9.85,22,22,22h34h202.003h34c12.15,0,22-9.85,22-22v-64c0-15.464-12.536-28-28-28l0,0
	C369.538,361,357.002,373.536,357.002,389z"/>
<polygon style="fill:#FF5D5D;" points="502,229 393.667,229 421.805,152.667 473.861,152.667 "/>
<path style="fill:#A0E557;" d="M80.333,226.365c4.037-5.387,6.429-12.079,6.429-19.329c0-17.818-14.445-32.263-32.263-32.263
	s-32.263,14.445-32.263,32.263c0,7.25,2.392,13.942,6.429,19.329C17.371,234.435,10,247.646,10,262.586
	c0,24.576,19.923,44.499,44.499,44.499s44.499-19.923,44.499-44.499C98.998,247.646,91.628,234.435,80.333,226.365z"/>
<path d="M266.001,47H406v65.667c0,5.522,4.478,10,10,10s10-4.478,10-10V37c0-5.522-4.478-10-10-10H266.001c-5.522,0-10,4.478-10,10
	S260.479,47,266.001,47z"/>
<path d="M226,47c2.63,0,5.21-1.07,7.069-2.931C234.93,42.21,236,39.63,236,37s-1.07-5.21-2.931-7.07C231.21,28.069,228.63,27,226,27
	s-5.21,1.069-7.07,2.93S216,34.37,216,37s1.069,5.21,2.93,7.069C220.79,45.93,223.37,47,226,47z"/>
<path d="M136,67c-5.522,0-10,4.478-10,10v80c0,5.522,4.478,10,10,10h240c5.522,0,10-4.478,10-10V77c0-5.522-4.478-10-10-10H136z
	 M366,147H146V87h220V147z"/>
<path d="M502,424.938h-44V239h44c3.27,0,6.333-1.599,8.203-4.281s2.311-6.109,1.18-9.178l-28.139-76.333
	c-1.449-3.931-5.194-6.541-9.383-6.541h-52.056c-4.188,0-7.934,2.61-9.383,6.541L398.492,187H106V47h74.5c5.522,0,10-4.478,10-10
	s-4.478-10-10-10H96c-5.522,0-10,4.478-10,10v141.9c-7.745-8.662-18.995-14.127-31.501-14.127
	c-23.304,0-42.263,18.959-42.263,42.264c0,5.995,1.234,11.798,3.616,17.147C5.803,234.314,0,248.121,0,262.586
	c0,26.634,19.21,48.852,44.499,53.563V331H10c-5.522,0-10,4.478-10,10v134c0,5.522,4.478,10,10,10h88.998
	c3.02,0,5.72-1.344,7.554-3.46c4.343,2.208,9.25,3.46,14.446,3.46h270.004c1.378,0,2.733-0.097,4.066-0.267
	c0.729,0.169,1.485,0.267,2.265,0.267H502c5.522,0,10-4.478,10-10v-40.063C512,429.415,507.522,424.938,502,424.938z
	 M428.777,162.667h38.112L487.656,219h-39.173c-0.161-0.008-0.32-0.024-0.483-0.024s-0.322,0.017-0.483,0.024h-39.506
	L428.777,162.667z M20,262.586c0-11.108,5.413-21.607,14.479-28.085c2.19-1.564,3.657-3.946,4.068-6.606
	c0.412-2.661-0.266-5.375-1.881-7.528c-2.898-3.867-4.431-8.477-4.431-13.33c0-12.276,9.987-22.264,22.263-22.264
	s22.263,9.987,22.263,22.264c0,4.854-1.532,9.463-4.431,13.331c-1.614,2.153-2.292,4.867-1.88,7.527
	c0.411,2.66,1.878,5.041,4.068,6.606c9.066,6.478,14.479,16.977,14.479,28.085c0,15.546-10.338,28.718-24.499,33.016v-34.627
	c0-5.522-4.478-10-10-10s-10,4.478-10,10v34.627C30.338,291.304,20,278.132,20,262.586z M64.499,316.149
	c25.289-4.711,44.499-26.929,44.499-53.563c0-14.465-5.803-28.271-15.852-38.403c2.381-5.349,3.615-11.151,3.615-17.146
	c0-0.012-0.001-0.024-0.001-0.036h294.358l-6.835,18.541c-1.131,3.068-0.69,6.495,1.18,9.178s4.934,4.281,8.203,4.281H438v185.938
	h-14.998V389c0-17.142-11.412-31.663-27.035-36.381v-51.967c0-22.416-18.236-40.652-40.652-40.652H157.651
	c-22.416,0-40.653,18.236-40.653,40.652v51.692c-2.808,0.767-5.49,1.842-8,3.198V341c0-5.522-4.478-10-10-10H64.499V316.149z
	 M164.945,387h182.11c-0.035,0.663-0.053,1.329-0.053,2v22H164.998v-22C164.998,388.329,164.979,387.663,164.945,387z M354.048,367
	H157.952c-5.025-7.049-12.389-12.315-20.954-14.655v-51.692c0-11.388,9.265-20.652,20.653-20.652h197.663
	c11.388,0,20.652,9.265,20.652,20.652v51.442C366.99,354.292,359.26,359.687,354.048,367z M88.998,465H20V351h68.998V465z
	 M108.998,453v-64c0-9.925,8.075-18,18-18s18,8.075,18,18v32c0,5.522,4.478,10,10,10h202.004c5.522,0,10-4.478,10-10v-32
	c0-9.925,8.075-18,18-18s18,8.075,18,18v64c0,6.617-5.383,12-12,12H120.998C114.381,465,108.998,459.617,108.998,453z M492,465
	h-71.342c1.506-3.708,2.344-7.757,2.344-12v-8.063H492V465z"/>
<path d="M295.061,300h-45.333c-5.522,0-10,4.478-10,10s4.478,10,10,10h45.333c5.522,0,10-4.478,10-10S300.583,300,295.061,300z"/>
<path d="M214.66,300c-2.63,0-5.2,1.069-7.07,2.93c-1.86,1.86-2.93,4.44-2.93,7.07s1.069,5.21,2.93,7.069
	c1.87,1.86,4.44,2.931,7.07,2.931c2.64,0,5.22-1.07,7.08-2.931c1.859-1.859,2.92-4.439,2.92-7.069s-1.061-5.21-2.92-7.07
	C219.88,301.069,217.3,300,214.66,300z"/>
<g>
</g>
<g>
</g>
<g>
</g>
<g>
</g>
<g>
</g>
<g>
</g>
<g>
</g>
<g>
</g>
<g>
</g>
<g>
</g>
<g>
</g>
<g>
</g>
<g>
</g>
<g>
</g>
<g>
</g>
</svg>
