<?xml version="1.0" encoding="iso-8859-1"?>
<!-- Generator: Adobe Illustrator 19.0.0, SVG Export Plug-In . SVG Version: 6.00 Build 0)  -->
<svg version="1.1" id="Capa_1" xmlns="http://www.w3.org/2000/svg" xmlns:xlink="http://www.w3.org/1999/xlink" x="0px" y="0px"
	 viewBox="0 0 512.001 512.001" style="enable-background:new 0 0 512.001 512.001;" xml:space="preserve">
<g>
	<g>
		<path d="M503.28,44.897c4.817,0,8.721-3.905,8.721-8.721V8.721c0-4.816-3.903-8.721-8.721-8.721H108.633
			c-4.816,0-8.721,3.905-8.721,8.721v394.645c0,4.816,3.905,8.721,8.721,8.721h394.645c4.817,0,8.721-3.905,8.721-8.721V65.245
			c0-4.816-3.903-8.721-8.721-8.721c-4.817,0-8.721,3.905-8.721,8.721v149.416h-34.634c-4.817,0-8.721,3.905-8.721,8.721
			s3.903,8.721,8.721,8.721h34.634v162.543H245.393v-42.197c0-4.816-3.905-8.721-8.721-8.721c-4.816,0-8.721,3.905-8.721,8.721
			v42.197H117.354V17.442h110.598v272.218c0,4.816,3.905,8.721,8.721,8.721c4.816,0,8.721-3.905,8.721-8.721v-57.557h155.229
			c4.817,0,8.721-3.905,8.721-8.721s-3.903-8.721-8.721-8.721H245.393V17.442h249.166v18.734
			C494.559,40.992,498.462,44.897,503.28,44.897z"/>
	</g>
</g>
<g>
	<g>
		<path d="M73.679,50.331L44.902,4.112C43.31,1.555,40.51,0,37.499,0c-3.012,0-5.811,1.555-7.403,4.112L1.318,50.331
			c-1.674,2.689-1.759,6.074-0.221,8.843s4.457,4.487,7.624,4.487h20.057v36.468c0,4.816,3.905,8.721,8.721,8.721
			c4.816,0,8.721-3.905,8.721-8.721V63.661h20.057c3.167,0,6.086-1.717,7.624-4.487S75.354,53.019,73.679,50.331z M24.424,46.219
			l13.074-20.998l13.074,20.998H24.424z"/>
	</g>
</g>
<g>
	<g>
		<path d="M73.9,352.914c-1.538-2.769-4.457-4.486-7.624-4.486H46.219V123.384c0-4.816-3.905-8.721-8.721-8.721
			c-4.816,0-8.721,3.905-8.721,8.721v225.043H8.721c-3.167,0-6.086,1.717-7.624,4.487c-1.538,2.77-1.453,6.155,0.221,8.843
			l28.777,46.219c1.592,2.557,4.391,4.112,7.403,4.112c3.013,0,5.812-1.555,7.403-4.112l28.777-46.219
			C75.354,359.067,75.439,355.683,73.9,352.914z M37.499,386.868L24.424,365.87h26.148L37.499,386.868z"/>
	</g>
</g>
<g>
	<g>
		<path d="M507.889,467.099l-46.219-28.777c-2.689-1.674-6.074-1.758-8.843-0.221c-2.769,1.538-4.486,4.457-4.486,7.624v20.057
			H163.573v-20.057c0-3.167-1.717-6.086-4.486-7.624c-2.769-1.537-6.153-1.453-8.844,0.221l-46.219,28.777
			c-2.557,1.592-4.112,4.391-4.112,7.403s1.555,5.811,4.112,7.403l46.219,28.777c1.408,0.877,3.008,1.317,4.609,1.317
			c1.457,0,2.915-0.364,4.234-1.096c2.77-1.538,4.487-4.457,4.487-7.624v-20.057H448.34v20.057c0,3.167,1.719,6.086,4.486,7.624
			c1.32,0.733,2.778,1.096,4.235,1.096c1.601,0,3.201-0.441,4.609-1.317l46.219-28.777c2.557-1.592,4.112-4.391,4.112-7.403
			C512.001,471.489,510.446,468.691,507.889,467.099z M146.131,487.576l-20.998-13.074l20.998-13.074V487.576z M465.782,487.576
			v-26.148l21,13.074L465.782,487.576z"/>
	</g>
</g>
<g>
</g>
<g>
</g>
<g>
</g>
<g>
</g>
<g>
</g>
<g>
</g>
<g>
</g>
<g>
</g>
<g>
</g>
<g>
</g>
<g>
</g>
<g>
</g>
<g>
</g>
<g>
</g>
<g>
</g>
</svg>
