<svg height="480pt" viewBox="0 -31 480 479" width="480pt" xmlns="http://www.w3.org/2000/svg"><path d="m456 256.5h-32v-40c0-13.253906-10.746094-24-24-24h-320c-13.253906 0-24 10.746094-24 24v40h-32c-13.253906 0-24 10.746094-24 24v96c0 4.417969 3.582031 8 8 8h45.761719l-5.523438 22.0625c-.59375 2.390625-.058593 4.921875 1.457031 6.863281 1.515626 1.9375 3.84375 3.074219 6.304688 3.074219h24c2.519531 0 4.890625-1.1875 6.398438-3.199219l21.601562-28.800781h264l21.601562 28.800781c1.507813 2.011719 3.878907 3.199219 6.398438 3.199219h24c2.460938 0 4.789062-1.136719 6.304688-3.074219 1.515624-1.941406 2.050781-4.472656 1.457031-6.863281l-5.523438-22.0625h45.761719c4.417969 0 8-3.582031 8-8v-96c0-13.253906-10.746094-24-24-24zm-48-40v89.472656c-2.5625-.949218-5.269531-1.445312-8-1.472656h-152v-96h152c4.417969 0 8 3.582031 8 8zm-304 152h-32v-40c0-4.417969 3.582031-8 8-8h152v48zm-32-152c0-4.417969 3.582031-8 8-8h152v96h-152c-2.730469.027344-5.4375.523438-8 1.472656zm-56 64c0-4.417969 3.582031-8 8-8h32v96h-40zm60 120h-9.753906l4-16h17.753906zm172-80h152c4.417969 0 8 3.582031 8 8v40h-160zm156 80-12-16h17.753906l4 16zm60-32h-40v-96h32c4.417969 0 8 3.582031 8 8zm0 0"/><path d="m112 248.5h16v16h-16zm0 0"/><path d="m175.992188 248.5h16v16h-16zm0 0"/><path d="m288 248.5h16v16h-16zm0 0"/><path d="m352 248.5h16v16h-16zm0 0"/><path d="m80 8.5v64h-24c-4.417969 0-8 3.582031-8 8v32c0 4.417969 3.582031 8 8 8h24v32c0 4.417969 3.582031 8 8 8h32c4.417969 0 8-3.582031 8-8v-32h224v32c0 4.417969 3.582031 8 8 8h32c4.417969 0 8-3.582031 8-8v-32h24c4.417969 0 8-3.582031 8-8v-32c.003906-2.148438-.863281-4.203125-2.398438-5.703125 4.277344-8.71875 2.753907-19.167969-3.839843-26.296875 6.390625-7.007812 8.03125-17.132812 4.183593-25.800781-3.847656-8.667969-12.460937-14.242188-21.945312-14.199219h-56c-2.78125-.015625-5.367188 1.414062-6.835938 3.773438-1.46875 2.363281-1.605468 5.316406-.363281 7.800781 3.894531 7.828125 3.894531 17.023437 0 24.851562-.105469.207031-.136719.429688-.226562.644531-.085938.21875-.238281.617188-.328125.9375-.078125.328126-.136719.664063-.175782 1-.105468.65625-.105468 1.328126 0 1.984376.039063.335937.097657.671874.175782 1 .089844.320312.210937.625.328125.9375.121093.308593.121093.4375.226562.644531 3.117188 6.355469 3.6875 13.664062 1.597657 20.425781h-75.382813c1.082031-2.011719 1.238281-4.390625.433594-6.527344l-23.671875-60.394531c-.816406-2.0625-2.453125-3.695313-4.519532-4.507813-2.066406-.8125-4.375-.730468-6.378906.230469l-13.078125 6.238281c-.4375-3.984374-3.792969-7.011718-7.800781-7.039062h-64c-4.417969 0-8 3.582031-8 8v8h-16v-8c0-4.417969-3.582031-8-8-8h-32c-4.417969 0-8 3.582031-8 8zm32 136h-16v-24h16zm272 0h-16v-24h16zm32-40h-352v-16h352zm-52.976562-80h44.976562c4.417969 0 8 3.582031 8 8s-3.582031 8-8 8h-44.976562c.976562-5.289062.976562-10.710938 0-16zm0 32h44.976562c4.417969 0 8 3.582031 8 8s-3.582031 8-8 8h-44.976562c.976562-5.289062.976562-10.710938 0-16zm-139.023438 16v-10.0625l3.945312 10.0625zm12-53.078125 17.816406 45.453125-9.847656 4.703125-17.800781-45.453125zm-28 53.078125h-16v-56h16zm-48-56h16v56h-16zm-16 16v40h-16v-40zm-48-16h16v56h-16zm0 0"/></svg>