<?xml version="1.0" encoding="iso-8859-1"?>
<!-- Generator: Adobe Illustrator 17.1.0, SVG Export Plug-In . SVG Version: 6.00 Build 0)  -->
<!DOCTYPE svg PUBLIC "-//W3C//DTD SVG 1.1//EN" "http://www.w3.org/Graphics/SVG/1.1/DTD/svg11.dtd">
<svg version="1.1" id="Capa_1" xmlns="http://www.w3.org/2000/svg" xmlns:xlink="http://www.w3.org/1999/xlink" x="0px" y="0px"
	 viewBox="0 0 151.91 151.91" style="enable-background:new 0 0 151.91 151.91;" xml:space="preserve">
<path style="" d="M143.972,150.268c-0.64,0-1.28-0.244-1.768-0.732c-0.977-0.977-0.977-2.559,0-3.535l1.107-1.107
	H29.133L30.24,146c0.977,0.977,0.977,2.559,0,3.535c-0.976,0.977-2.56,0.977-3.535,0l-5.313-5.313
	c-0.496-0.496-0.74-1.148-0.732-1.799c0-0.01,0-0.021,0-0.031c0-0.86,0.434-1.618,1.095-2.068l5.075-5.074
	c0.976-0.977,2.56-0.977,3.535,0c0.977,0.977,0.977,2.559,0,3.535l-1.107,1.107h114.179l-1.107-1.107
	c-0.977-0.977-0.977-2.559,0-3.535c0.976-0.977,2.56-0.977,3.535,0l5.313,5.313c0.497,0.496,0.74,1.148,0.732,1.799
	c0,0.011,0,0.021,0,0.031c0,0.86-0.434,1.618-1.095,2.068l-5.075,5.074C145.252,150.024,144.612,150.268,143.972,150.268z
	 M7.875,132.893c-0.86,0-1.619-0.435-2.068-1.096l-5.074-5.074c-0.977-0.977-0.977-2.559,0-3.535c0.976-0.977,2.56-0.977,3.535,0
	l1.107,1.107V10.115l-1.107,1.107c-0.976,0.977-2.56,0.977-3.535,0c-0.977-0.977-0.977-2.559,0-3.535l5.313-5.313
	c0.496-0.496,1.144-0.749,1.798-0.732c0.886,0.021,1.645,0.426,2.1,1.096l5.074,5.074c0.977,0.977,0.977,2.559,0,3.535
	c-0.976,0.977-2.56,0.977-3.535,0l-1.107-1.107v114.18l1.107-1.107c0.976-0.977,2.56-0.977,3.535,0c0.977,0.977,0.977,2.559,0,3.535
	l-5.313,5.313c-0.496,0.496-1.154,0.746-1.798,0.732C7.896,132.893,7.886,132.893,7.875,132.893z M149.41,125.82H28.597
	c-1.381,0-2.5-1.119-2.5-2.5V4.143c0-1.381,1.119-2.5,2.5-2.5h72.194c1.381,0,2.5,1.119,2.5,2.5v48.523h46.118
	c1.381,0,2.5,1.119,2.5,2.5v68.153C151.91,124.7,150.791,125.82,149.41,125.82z M103.184,120.82h43.726V57.666h-43.726V120.82z
	 M55.292,120.82h42.893V87.332H55.292V120.82z M31.097,120.82h19.194V87.332H31.097V120.82z M52.792,82.332h45.393V55.166
	c0-0.253,0.038-0.497,0.107-0.728V28.332H31.097v54H52.792z M67.141,23.332h31.151V6.643H67.141V23.332z M31.097,23.332h31.043
	V6.643H31.097V23.332z"/>
</svg>
