<?xml version='1.0' encoding='iso-8859-1'?>
<!DOCTYPE svg PUBLIC '-//W3C//DTD SVG 1.1//EN' 'http://www.w3.org/Graphics/SVG/1.1/DTD/svg11.dtd'>
<svg version="1.1" xmlns="http://www.w3.org/2000/svg" viewBox="0 0 333.724 333.724" xmlns:xlink="http://www.w3.org/1999/xlink" enable-background="new 0 0 333.724 333.724">
  <g>
    <path d="m330.938,214.279l-52.918-39.905v-16.026c0-2.197-1.031-4.266-2.785-5.589l-104.158-78.545c-2.496-1.882-5.934-1.882-8.43,0l-104.158,78.545c-1.754,1.323-2.785,3.392-2.785,5.589v16.026l-52.918,39.905c-1.754,1.323-2.785,3.392-2.785,5.589v70.722c0,3.866 3.134,7 7,7h55.703 55.703 96.91 55.703 55.703c3.866,0 7-3.134 7-7v-70.722c5.68434e-14-2.197-1.031-4.266-2.785-5.589zm-156.507,69.31h-15.139v-35.286h15.139v35.286zm14,0v-42.286c0-3.866-3.134-7-7-7h-29.139c-3.866,0-7,3.134-7,7v42.286h-33.886-41.702v-121.753l97.158-73.267 97.158,73.267v121.753h-41.703-33.886zm-174.43-60.233l41.703-31.448v91.681h-41.703v-60.233zm305.722,60.233h-41.703v-91.681l41.703,31.448v60.233z"/>
    <path d="M11.215,169.273L166.862,51.902l155.646,117.372c1.263,0.952,2.742,1.412,4.21,1.412c2.121,0,4.218-0.961,5.594-2.786   c2.328-3.086,1.713-7.476-1.374-9.803L171.077,37.546c-2.496-1.882-5.934-1.882-8.43,0L2.786,158.096   c-3.087,2.328-3.702,6.717-1.374,9.803C3.739,170.986,8.13,171.601,11.215,169.273z"/>
  </g>
</svg>
