<?xml version="1.0" encoding="iso-8859-1"?>
<!-- Generator: Adobe Illustrator 19.0.0, SVG Export Plug-In . SVG Version: 6.00 Build 0)  -->
<svg version="1.1" id="Layer_1" xmlns="http://www.w3.org/2000/svg" xmlns:xlink="http://www.w3.org/1999/xlink" x="0px" y="0px"
	 viewBox="0 0 509.44 509.44" style="enable-background:new 0 0 509.44 509.44;" xml:space="preserve">
<g>
	<g>
		<circle cx="256" cy="431.649" r="42.667"/>
	</g>
</g>
<g>
	<g>
		<path d="M111.573,103.969c-31.587,15.539-60.414,36.15-85.333,61.013c-9.315,9.067-18.077,18.684-26.24,28.8l27.307,27.307
			c7.868-10.239,16.421-19.932,25.6-29.013c25.142-24.97,54.736-45.012,87.253-59.093L111.573,103.969z"/>
	</g>
</g>
<g>
	<g>
		<path d="M192,184.822c-50.004,13.969-93.595,44.89-123.307,87.467l27.52,27.093c29.213-44.278,75.635-74.297,128-82.773
			L192,184.822z"/>
	</g>
</g>
<g>
	<g>
		<path d="M296.533,288.929c-61.43-20.099-128.414,6.911-158.72,64l28.587,28.587c19.11-48.95,74.284-73.139,123.234-54.029
			c12.267,4.789,23.406,12.072,32.713,21.389C332.16,357.836,296.533,288.929,296.533,288.929z"/>
	</g>
</g>
<g>
	<g>
		
			<rect x="228.415" y="-77.121" transform="matrix(0.7071 -0.7071 0.7071 0.7071 -106.9645 251.2049)" width="42.667" height="663.683"/>
	</g>
</g>
<g>
	<g>
		<path d="M162.773,84.129l31.36,31.573c108.358-25.086,221.309,16.162,288,105.173l27.307-27.307
			C427.836,88.621,289.843,45.057,162.773,84.129z"/>
	</g>
</g>
<g>
	<g>
		<path d="M256,175.649l42.667,43.947c34.699,7.711,66.505,25.093,91.733,50.133c9.082,9.042,17.23,18.977,24.32,29.653
			l27.307-27.307C399.8,211.125,330.147,175.02,256,175.649z"/>
	</g>
</g>
<g>
</g>
<g>
</g>
<g>
</g>
<g>
</g>
<g>
</g>
<g>
</g>
<g>
</g>
<g>
</g>
<g>
</g>
<g>
</g>
<g>
</g>
<g>
</g>
<g>
</g>
<g>
</g>
<g>
</g>
</svg>
