<?xml version="1.0" encoding="iso-8859-1"?>
<!-- Generator: Adobe Illustrator 19.0.0, SVG Export Plug-In . SVG Version: 6.00 Build 0)  -->
<svg xmlns="http://www.w3.org/2000/svg" xmlns:xlink="http://www.w3.org/1999/xlink" version="1.1" id="Layer_1" x="0px" y="0px" viewBox="0 0 512.003 512.003" style="enable-background:new 0 0 512.003 512.003;" xml:space="preserve" width="512px" height="512px">
<g>
	<g>
		<path d="M489.74,0.001H155.827c-9.22,0-16.696,7.475-16.696,16.696V361.74c0,9.22,7.475,16.696,16.696,16.696H489.74    c9.22,0,16.696-7.475,16.696-16.696V16.696C506.436,7.476,498.961,0.001,489.74,0.001z M473.045,133.566h-50.087    c-9.22,0-16.696,7.475-16.696,16.696s7.475,16.696,16.696,16.696h50.087v178.087H261.566v-50.087    c0-9.22-7.475-16.696-16.696-16.696s-16.696,7.475-16.696,16.696v50.087h-55.652V33.392h55.652v183.652    c0,9.22,7.475,16.696,16.696,16.696s16.696-7.475,16.696-16.696v-50.087h83.478c9.22,0,16.696-7.475,16.696-16.696    s-7.475-16.696-16.696-16.696h-83.478V33.392h211.478V133.566z" fill="#FFFFFF"/>
	</g>
</g>
<g>
	<g>
		<path d="M501.543,450.105l-33.388-33.389c-6.519-6.52-17.091-6.52-23.611,0s-6.52,17.091,0,23.611l4.89,4.891H129.351l4.89-4.891    c6.52-6.519,6.52-17.09,0.001-23.61c-6.519-6.52-17.091-6.52-23.611,0l-33.388,33.389c-6.565,6.558-6.452,17.171,0,23.617    l33.388,33.389c6.519,6.52,17.091,6.521,23.611,0c6.52-6.52,6.52-17.091,0-23.611l-4.891-4.892h320.082l-4.89,4.891    c-6.52,6.52-6.52,17.091,0,23.611c6.519,6.52,17.091,6.521,23.611,0l33.388-33.389    C508.053,467.218,508.038,456.593,501.543,450.105z" fill="#FFFFFF"/>
	</g>
</g>
<g>
	<g>
		<path d="M77.24,349.935l-4.891,4.89V57.003l4.891,4.89c6.519,6.52,17.091,6.521,23.611,0c6.52-6.519,6.521-17.091,0-23.611    L67.459,4.89c-6.519-6.52-17.091-6.52-23.611,0L10.457,38.281c-6.52,6.519-6.521,17.091,0,23.611c6.519,6.52,17.091,6.52,23.611,0    l4.89-4.89v297.821l-4.89-4.89c-6.519-6.52-17.091-6.52-23.611,0c-6.52,6.519-6.521,17.091,0,23.611l33.391,33.391    c6.519,6.52,17.091,6.521,23.611,0l33.391-33.391c6.52-6.519,6.521-17.091,0-23.611C94.332,343.415,83.76,343.415,77.24,349.935z" fill="#FFFFFF"/>
	</g>
</g>
<g>
</g>
<g>
</g>
<g>
</g>
<g>
</g>
<g>
</g>
<g>
</g>
<g>
</g>
<g>
</g>
<g>
</g>
<g>
</g>
<g>
</g>
<g>
</g>
<g>
</g>
<g>
</g>
<g>
</g>
</svg>
