<?xml version="1.0" encoding="iso-8859-1"?>
<!-- Generator: Adobe Illustrator 19.0.0, SVG Export Plug-In . SVG Version: 6.00 Build 0)  -->
<svg version="1.1" id="Layer_1" xmlns="http://www.w3.org/2000/svg" xmlns:xlink="http://www.w3.org/1999/xlink" x="0px" y="0px"
	 viewBox="0 0 503.607 503.607" style="enable-background:new 0 0 503.607 503.607;" xml:space="preserve">
<g transform="translate(1 1)">
	<g>
		<g>
			<path d="M477.426,74.541H24.18C9.911,74.541-1,85.452-1,99.721V267.59c0,14.269,10.911,25.18,25.18,25.18h453.246
				c14.269,0,25.18-10.911,25.18-25.18V99.721C502.607,85.452,491.695,74.541,477.426,74.541z M485.82,267.59
				c0,5.036-3.357,8.393-8.393,8.393H24.18c-5.036,0-8.393-3.357-8.393-8.393V99.721c0-5.036,4.197-8.393,8.393-8.393h453.246
				c5.036,0,8.393,3.357,8.393,8.393V267.59z"/>
			<path d="M217.229,150.082h67.148c5.036,0,8.393-3.357,8.393-8.393s-3.357-8.393-8.393-8.393h-67.148
				c-5.036,0-8.393,3.357-8.393,8.393S212.193,150.082,217.229,150.082z"/>
			<path d="M460.639,242.41H40.967c-5.036,0-8.393,3.357-8.393,8.393s3.357,8.393,8.393,8.393h419.672
				c5.036,0,8.393-3.357,8.393-8.393S465.675,242.41,460.639,242.41z"/>
			<path d="M460.639,208.836H40.967c-5.036,0-8.393,3.357-8.393,8.393s3.357,8.393,8.393,8.393h419.672
				c5.036,0,8.393-3.357,8.393-8.393S465.675,208.836,460.639,208.836z"/>
			<path d="M255,352.364c-8.393-4.197-12.59-9.233-12.59-13.43s5.036-9.233,11.751-14.269c4.197-1.679,5.036-6.715,3.357-10.911
				c-1.679-4.197-6.715-5.875-10.911-3.357c-13.43,7.554-20.984,17.626-20.984,28.538c0,10.911,7.554,20.984,20.984,29.377
				c8.393,4.197,12.59,9.233,12.59,13.43s-5.036,9.233-12.59,13.429c-4.197,1.679-5.875,6.715-3.357,10.911
				c1.679,2.518,4.197,4.197,7.554,4.197c1.679,0,2.518,0,4.197-0.839c13.43-7.554,20.984-17.626,20.984-28.538
				S268.43,359.079,255,352.364z"/>
			<path d="M162.672,369.151c-8.393-4.197-12.59-9.233-12.59-13.43s5.036-9.233,11.751-14.269c4.197-1.679,5.875-6.715,3.357-10.911
				c-1.679-4.197-6.715-5.875-10.911-3.357c-13.43,7.554-20.984,17.626-20.984,28.538c0,10.911,7.554,20.984,20.984,29.377
				c8.393,4.197,12.59,9.233,12.59,13.43s-5.036,9.233-12.59,13.43c-4.197,1.679-5.875,6.715-3.357,10.911
				c1.679,2.518,4.197,4.197,7.554,4.197c1.679,0,2.518,0,4.197-0.839c13.43-7.554,20.984-17.626,20.984-28.538
				S176.102,375.866,162.672,369.151z"/>
			<path d="M347.328,369.151c-8.393-4.197-12.59-9.233-12.59-13.43s5.036-9.233,11.751-14.269c4.197-1.679,5.036-6.715,3.357-10.911
				c-1.679-4.197-6.715-5.875-10.911-3.357c-13.43,7.554-20.984,17.626-20.984,28.538c0,10.911,7.554,20.984,20.984,29.377
				c8.393,4.197,12.59,9.233,12.59,13.43s-5.036,9.233-12.59,13.43c-4.197,1.679-5.875,6.715-3.357,10.911
				c1.679,2.518,4.197,4.197,7.554,4.197c1.679,0,2.518,0,4.197-0.839c13.43-7.554,20.984-17.626,20.984-28.538
				S360.757,375.866,347.328,369.151z"/>
		</g>
	</g>
</g>
<g>
</g>
<g>
</g>
<g>
</g>
<g>
</g>
<g>
</g>
<g>
</g>
<g>
</g>
<g>
</g>
<g>
</g>
<g>
</g>
<g>
</g>
<g>
</g>
<g>
</g>
<g>
</g>
<g>
</g>
</svg>
