<?xml version='1.0' encoding='iso-8859-1'?>
<!DOCTYPE svg PUBLIC '-//W3C//DTD SVG 1.1//EN' 'http://www.w3.org/Graphics/SVG/1.1/DTD/svg11.dtd'>
<svg version="1.1" xmlns="http://www.w3.org/2000/svg" viewBox="0 0 455 455" xmlns:xlink="http://www.w3.org/1999/xlink" enable-background="new 0 0 455 455">
  <g>
    <path d="m425.17,67.167h-395.34c-16.448,0-29.83,13.382-29.83,29.83v152.67c0,4.142 3.357,7.5 7.5,7.5h440c4.143,0 7.5-3.358 7.5-7.5v-152.67c0-16.448-13.382-29.83-29.83-29.83zm-392.67,15h390v9.51c0,4.957-4.033,8.99-8.99,8.99h-372.02c-4.957,0-8.99-4.033-8.99-8.99v-9.51zm390,122.5h-390v-1.01c0-4.957 4.033-8.99 8.99-8.99h372.02c4.957,0 8.99,4.033 8.99,8.99v1.01zm-390,10h390v10h-390v-10zm0,20h390v7.5h-390v-7.5zm407.5,7.5h-7.5v-38.51c0-10.471-8.519-18.99-18.99-18.99h-372.02c-10.472,0-18.99,8.519-18.99,18.99v38.51h-7.5v-145.17c0-5.51 3.027-10.319 7.5-12.875v7.555c0,10.471 8.519,18.99 18.99,18.99h372.02c10.472,0 18.99-8.519 18.99-18.99v-7.555c4.473,2.556 7.5,7.365 7.5,12.875v145.17z"/>
    <path d="m250.5,164.667h-46c-2.762,0-5,2.239-5,5s2.238,5 5,5h46c2.762,0 5-2.239 5-5s-2.238-5-5-5z"/>
    <path d="m401.503,164.668c-1.32,0-2.61,0.53-3.54,1.46s-1.46,2.22-1.46,3.54 0.53,2.61 1.46,3.53c0.93,0.94 2.22,1.47 3.54,1.47 1.31,0 2.6-0.53 3.53-1.47 0.93-0.93 1.47-2.22 1.47-3.53s-0.54-2.6-1.47-3.54c-0.93-0.93-2.22-1.46-3.53-1.46z"/>
    <path d="m378.503,164.668c-1.32,0-2.61,0.53-3.54,1.46s-1.46,2.22-1.46,3.54 0.53,2.6 1.46,3.53c0.93,0.93 2.22,1.47 3.54,1.47 1.31,0 2.6-0.54 3.53-1.47 0.93-0.93 1.47-2.22 1.47-3.53 0-1.32-0.54-2.61-1.47-3.54-0.93-0.93-2.22-1.46-3.53-1.46z"/>
    <path d="m186.319,289.942c1.351-2.409 0.493-5.456-1.916-6.807-2.407-1.352-5.456-0.493-6.807,1.915-9.09,16.21-9.091,36.35-0.001,52.561 7.396,13.192 7.396,29.583 0,42.776-1.351,2.409-0.492,5.456 1.916,6.807 0.773,0.434 1.612,0.64 2.44,0.64 1.75,0 3.449-0.92 4.366-2.556 9.088-16.209 9.088-36.348 0-52.557-7.397-13.195-7.396-29.586 0.002-42.779z"/>
    <path d="m231.862,289.942c1.351-2.409 0.493-5.456-1.916-6.807-2.407-1.352-5.456-0.493-6.807,1.915-9.09,16.21-9.091,36.35-0.001,52.561 7.396,13.192 7.396,29.583 0,42.776-1.351,2.409-0.492,5.456 1.916,6.807 0.773,0.434 1.612,0.64 2.44,0.64 1.75,0 3.449-0.92 4.366-2.556 9.088-16.209 9.088-36.348 0-52.557-7.397-13.195-7.396-29.586 0.002-42.779z"/>
    <path d="m277.406,289.942c1.351-2.409 0.493-5.456-1.916-6.807-2.408-1.352-5.456-0.493-6.807,1.915-9.091,16.21-9.091,36.35-0.002,52.561 7.397,13.193 7.397,29.583 0,42.776-1.351,2.408-0.493,5.456 1.916,6.807 0.773,0.434 1.612,0.64 2.44,0.64 1.75,0 3.449-0.92 4.366-2.556 9.089-16.209 9.089-36.348 0-52.557-7.396-13.194-7.396-29.586 0.003-42.779z"/>
  </g>
</svg>
