<svg height="512pt" viewBox="0 -17 512 512" width="512pt" xmlns="http://www.w3.org/2000/svg"><path d="m477.867188 17.066406h-443.734376c-4.710937 0-8.53125-3.824218-8.53125-8.53125 0-4.710937 3.820313-8.535156 8.53125-8.535156h443.734376c4.710937 0 8.53125 3.824219 8.53125 8.535156 0 4.707032-3.820313 8.53125-8.53125 8.53125zm0 0"/><path d="m256 102.398438c-4.710938 0-8.535156-3.820313-8.535156-8.53125v-85.332032c0-4.710937 3.824218-8.535156 8.535156-8.535156s8.535156 3.824219 8.535156 8.535156v85.332032c0 4.710937-3.824218 8.53125-8.535156 8.53125zm0 0"/><path d="m307.199219 187.734375h-102.398438c-4.710937 0-8.535156-3.824219-8.535156-8.535156v-17.066407c0-45.21875 24.558594-76.800781 59.734375-76.800781s59.734375 31.582031 59.734375 76.800781v17.066407c0 4.710937-3.824219 8.535156-8.535156 8.535156zm-93.867188-17.066406h85.335938v-8.535157c0-35.175781-17.546875-59.734374-42.667969-59.734374s-42.667969 24.558593-42.667969 59.734374zm0 0"/><path d="m358.398438 238.933594h-204.796876c-4.710937 0-8.535156-3.824219-8.535156-8.535156 0-32.9375 26.796875-59.730469 59.734375-59.730469h102.398438c32.9375 0 59.734375 26.792969 59.734375 59.730469 0 4.710937-3.824219 8.535156-8.535156 8.535156zm-195.410157-17.066406h186.023438c-3.964844-19.449219-21.203125-34.132813-41.8125-34.132813h-102.398438c-20.609375 0-37.847656 14.683594-41.8125 34.132813zm0 0"/><path d="m469.332031 443.734375h-426.664062c-23.527344 0-42.667969-19.140625-42.667969-42.667969v-25.601562c0-84.691406 68.90625-153.597656 153.601562-153.597656h204.796876c84.695312 0 153.601562 68.90625 153.601562 153.597656v25.601562c0 23.527344-19.140625 42.667969-42.667969 42.667969zm-315.730469-204.800781c-75.292968 0-136.535156 61.253906-136.535156 136.53125v25.601562c0 14.113282 11.484375 25.601563 25.601563 25.601563h426.664062c14.117188 0 25.601563-11.488281 25.601563-25.601563v-25.601562c0-75.277344-61.242188-136.53125-136.535156-136.53125zm0 0"/><path d="m42.667969 384c-4.710938 0-8.535157-3.824219-8.535157-8.535156 0-65.875 53.589844-119.464844 119.46875-119.464844 4.707032 0 8.53125 3.824219 8.53125 8.535156 0 4.707032-3.824218 8.53125-8.53125 8.53125-56.464843 0-102.402343 45.933594-102.402343 102.398438 0 4.710937-3.820313 8.535156-8.53125 8.535156zm0 0"/><path d="m324.265625 477.867188h-136.53125c-23.527344 0-42.667969-19.140626-42.667969-42.667969 0-4.710938 3.824219-8.53125 8.535156-8.53125h204.796876c4.710937 0 8.535156 3.820312 8.535156 8.53125 0 23.527343-19.140625 42.667969-42.667969 42.667969zm-160.671875-34.132813c3.523438 9.933594 13.011719 17.066406 24.140625 17.066406h136.53125c11.128906 0 20.617187-7.132812 24.140625-17.066406zm0 0"/></svg>