<svg height="512pt" viewBox="-44 0 512 512" width="512pt" xmlns="http://www.w3.org/2000/svg"><path d="m71.0625 74.050781-63.203125 124.5625c-18.117187 35.722657-3.847656 79.367188 31.875 97.484375.835937.425782 1.679687.832032 2.527344 1.222656 1.308593-3.566406 2.558593-7.144531 4.125-10.648437l63.238281-141.535156zm0 0"/><path d="m341.316406 284.222656-145.128906-284.222656-131.753906 294.753906c-33.214844 74.3125.105468 161.484375 74.417968 194.699219 2.535157 1.132813 5.101563 2.191406 7.695313 3.179687 31.816406 12.105469 66.832031 12.847657 99.132813 2.109376l10.898437-3.636719c77.234375-25.746094 118.972656-109.234375 93.226563-186.472657-2.339844-7.007812-5.199219-13.832031-8.558594-20.410156zm-81.835937 170.191406c-4.867188 2.496094-10.839844.574219-13.335938-4.292968-2.496093-4.867188-.574219-10.839844 4.292969-13.335938.042969-.019531.085938-.042968.125-.0625 39.050781-19.550781 63.765625-59.425781 63.898438-103.097656.03125-5.445312 4.457031-9.847656 9.90625-9.847656h.058593c5.449219.035156 9.847657 4.460937 9.847657 9.910156-.140626 51.132812-29.070313 97.832031-74.792969 120.726562zm0 0"/><path d="m373.898438 452.5625h19.8125v19.8125h-19.8125zm0 0"/><path d="m403.617188 412.9375h19.8125v19.8125h-19.8125zm0 0"/><path d="m344.179688 492.1875h19.8125v19.8125h-19.8125zm0 0"/></svg>